<svg xmlns="http://www.w3.org/2000/svg" width="24" height="24" viewBox="0 0 24 24" fill="none" class="lucide lucide-car w-6 h-6" aria-hidden="true" style="max-width: 100%; max-height: 100%; width: auto; height: auto;">
  <defs>
    <linearGradient id="carGradient" x1="0%" y1="0%" x2="100%" y2="100%">
      <stop offset="0%" stop-color="#06B6D4"/>
      <stop offset="100%" stop-color="#3B82F6"/>
    </linearGradient>
  </defs>

  <path d="M19 17h2c.6 0 1-.4 1-1v-3c0-.9-.7-1.7-1.5-1.9C18.7 10.6 16 10 16 10s-1.3-1.4-2.2-2.3c-.5-.4-1.1-.7-1.8-.7H5c-.6 0-1.1.4-1.4.9l-1.4 2.9A3.7 3.7 0 0 0 2 12v4c0 .6.4 1 1 1h2" stroke="url(#carGradient)" stroke-width="2" stroke-linecap="round" stroke-linejoin="round"/>
  <circle cx="7" cy="17" r="2" stroke="url(#carGradient)" stroke-width="2"/>

  <path d="M9 17h6" stroke="url(#carGradient)" stroke-width="2" stroke-linecap="round"/>

  <circle cx="17" cy="17" r="2" stroke="url(#carGradient)" stroke-width="2"/>
</svg>